<svg width="168" height="55" viewBox="0 0 168 55" fill="none" xmlns="http://www.w3.org/2000/svg">
<circle cx="47.5" cy="18.5" r="3.5" fill="#C4C4C4" fill-opacity="0.1"/>
<circle cx="70.5" cy="18.5" r="3.5" fill="#C4C4C4" fill-opacity="0.1"/>
<circle cx="93.5" cy="18.5" r="3.5" fill="#C4C4C4" fill-opacity="0.1"/>
<circle cx="116.5" cy="18.5" r="3.5" fill="#C4C4C4" fill-opacity="0.1"/>
<circle cx="139.5" cy="18.5" r="3.5" fill="#C4C4C4" fill-opacity="0.1"/>
<circle cx="162.5" cy="18.5" r="3.5" fill="#C4C4C4" fill-opacity="0.1"/>
<circle cx="47.5" cy="3.5" r="3.5" fill="#C4C4C4" fill-opacity="0.1"/>
<circle cx="70.5" cy="3.5" r="3.5" fill="#C4C4C4" fill-opacity="0.1"/>
<circle cx="93.5" cy="3.5" r="3.5" fill="#C4C4C4" fill-opacity="0.1"/>
<circle cx="116.5" cy="3.5" r="3.5" fill="#C4C4C4" fill-opacity="0.1"/>
<circle cx="139.5" cy="3.5" r="3.5" fill="#C4C4C4" fill-opacity="0.1"/>
<circle cx="162.5" cy="3.5" r="3.5" fill="#C4C4C4" fill-opacity="0.1"/>
<path d="M6.05469 48.16C4.44135 48.16 3.21469 47.5467 2.37469 46.32C1.53469 45.0933 1.11469 43.3067 1.11469 40.96C1.11469 38.6 1.53469 36.8067 2.37469 35.58C3.21469 34.3533 4.44135 33.74 6.05469 33.74C7.66802 33.74 8.89469 34.3533 9.73469 35.58C10.5747 36.7933 10.9947 38.58 10.9947 40.94C10.9947 43.3 10.5747 45.0933 9.73469 46.32C8.89469 47.5467 7.66802 48.16 6.05469 48.16ZM6.05469 46.78C7.17469 46.78 8.00135 46.3067 8.53469 45.36C9.06802 44.4133 9.33469 42.94 9.33469 40.94C9.33469 38.9267 9.06802 37.4533 8.53469 36.52C8.01469 35.5867 7.18802 35.12 6.05469 35.12C4.93469 35.12 4.10802 35.5933 3.57469 36.54C3.04135 37.4733 2.77469 38.94 2.77469 40.94C2.77469 42.94 3.04135 44.4133 3.57469 45.36C4.10802 46.3067 4.93469 46.78 6.05469 46.78ZM21.8869 46.62C22.1269 46.62 22.3135 46.68 22.4469 46.8C22.5802 46.92 22.6469 47.0867 22.6469 47.3C22.6469 47.5267 22.5802 47.7 22.4469 47.82C22.3269 47.94 22.1402 48 21.8869 48H15.2669C15.0135 48 14.8202 47.94 14.6869 47.82C14.5669 47.7 14.5069 47.5267 14.5069 47.3C14.5069 47.0867 14.5735 46.92 14.7069 46.8C14.8402 46.68 15.0269 46.62 15.2669 46.62H17.7469V35.9L15.5669 37.32C15.4602 37.3867 15.3535 37.42 15.2469 37.42C15.0602 37.42 14.8935 37.3333 14.7469 37.16C14.6135 36.9867 14.5469 36.8 14.5469 36.6C14.5469 36.32 14.6535 36.12 14.8669 36L17.9069 34.02C18.1335 33.8733 18.3669 33.8 18.6069 33.8C18.8335 33.8 19.0202 33.8733 19.1669 34.02C19.3135 34.1667 19.3869 34.3733 19.3869 34.64V46.62H21.8869ZM33.8791 46.62C34.1191 46.62 34.3057 46.68 34.4391 46.8C34.5724 46.92 34.6391 47.0867 34.6391 47.3C34.6391 47.5267 34.5724 47.7 34.4391 47.82C34.3191 47.94 34.1324 48 33.8791 48H27.2591C27.0057 48 26.8124 47.94 26.6791 47.82C26.5591 47.7 26.4991 47.5267 26.4991 47.3C26.4991 47.0867 26.5657 46.92 26.6991 46.8C26.8324 46.68 27.0191 46.62 27.2591 46.62H29.7391V35.9L27.5591 37.32C27.4524 37.3867 27.3457 37.42 27.2391 37.42C27.0524 37.42 26.8857 37.3333 26.7391 37.16C26.6057 36.9867 26.5391 36.8 26.5391 36.6C26.5391 36.32 26.6457 36.12 26.8591 36L29.8991 34.02C30.1257 33.8733 30.3591 33.8 30.5991 33.8C30.8257 33.8 31.0124 33.8733 31.1591 34.02C31.3057 34.1667 31.3791 34.3733 31.3791 34.64V46.62H33.8791ZM45.8713 46.62C46.1113 46.62 46.2979 46.68 46.4313 46.8C46.5646 46.92 46.6313 47.0867 46.6313 47.3C46.6313 47.5267 46.5646 47.7 46.4313 47.82C46.3113 47.94 46.1246 48 45.8713 48H39.2513C38.9979 48 38.8046 47.94 38.6712 47.82C38.5513 47.7 38.4913 47.5267 38.4913 47.3C38.4913 47.0867 38.5579 46.92 38.6913 46.8C38.8246 46.68 39.0113 46.62 39.2513 46.62H41.7313V35.9L39.5513 37.32C39.4446 37.3867 39.3379 37.42 39.2313 37.42C39.0446 37.42 38.8779 37.3333 38.7313 37.16C38.5979 36.9867 38.5312 36.8 38.5312 36.6C38.5312 36.32 38.6379 36.12 38.8513 36L41.8913 34.02C42.1179 33.8733 42.3513 33.8 42.5913 33.8C42.8179 33.8 43.0046 33.8733 43.1513 34.02C43.2979 34.1667 43.3713 34.3733 43.3713 34.64V46.62H45.8713ZM54.0234 48.16C52.4101 48.16 51.1834 47.5467 50.3434 46.32C49.5034 45.0933 49.0834 43.3067 49.0834 40.96C49.0834 38.6 49.5034 36.8067 50.3434 35.58C51.1834 34.3533 52.4101 33.74 54.0234 33.74C55.6368 33.74 56.8634 34.3533 57.7034 35.58C58.5434 36.7933 58.9634 38.58 58.9634 40.94C58.9634 43.3 58.5434 45.0933 57.7034 46.32C56.8634 47.5467 55.6368 48.16 54.0234 48.16ZM54.0234 46.78C55.1434 46.78 55.9701 46.3067 56.5034 45.36C57.0368 44.4133 57.3034 42.94 57.3034 40.94C57.3034 38.9267 57.0368 37.4533 56.5034 36.52C55.9834 35.5867 55.1568 35.12 54.0234 35.12C52.9034 35.12 52.0768 35.5933 51.5434 36.54C51.0101 37.4733 50.7434 38.94 50.7434 40.94C50.7434 42.94 51.0101 44.4133 51.5434 45.36C52.0768 46.3067 52.9034 46.78 54.0234 46.78ZM66.0156 48.16C64.4023 48.16 63.1756 47.5467 62.3356 46.32C61.4956 45.0933 61.0756 43.3067 61.0756 40.96C61.0756 38.6 61.4956 36.8067 62.3356 35.58C63.1756 34.3533 64.4023 33.74 66.0156 33.74C67.629 33.74 68.8556 34.3533 69.6956 35.58C70.5356 36.7933 70.9556 38.58 70.9556 40.94C70.9556 43.3 70.5356 45.0933 69.6956 46.32C68.8556 47.5467 67.629 48.16 66.0156 48.16ZM66.0156 46.78C67.1356 46.78 67.9623 46.3067 68.4956 45.36C69.029 44.4133 69.2956 42.94 69.2956 40.94C69.2956 38.9267 69.029 37.4533 68.4956 36.52C67.9756 35.5867 67.149 35.12 66.0156 35.12C64.8956 35.12 64.069 35.5933 63.5356 36.54C63.0023 37.4733 62.7356 38.94 62.7356 40.94C62.7356 42.94 63.0023 44.4133 63.5356 45.36C64.069 46.3067 64.8956 46.78 66.0156 46.78ZM81.8478 46.62C82.0878 46.62 82.2745 46.68 82.4078 46.8C82.5411 46.92 82.6078 47.0867 82.6078 47.3C82.6078 47.5267 82.5411 47.7 82.4078 47.82C82.2878 47.94 82.1011 48 81.8478 48H75.2278C74.9745 48 74.7811 47.94 74.6478 47.82C74.5278 47.7 74.4678 47.5267 74.4678 47.3C74.4678 47.0867 74.5345 46.92 74.6678 46.8C74.8011 46.68 74.9878 46.62 75.2278 46.62H77.7078V35.9L75.5278 37.32C75.4211 37.3867 75.3145 37.42 75.2078 37.42C75.0211 37.42 74.8545 37.3333 74.7078 37.16C74.5745 36.9867 74.5078 36.8 74.5078 36.6C74.5078 36.32 74.6145 36.12 74.8278 36L77.8678 34.02C78.0945 33.8733 78.3278 33.8 78.5678 33.8C78.7945 33.8 78.9811 33.8733 79.1278 34.02C79.2745 34.1667 79.3478 34.3733 79.3478 34.64V46.62H81.8478ZM93.84 46.62C94.08 46.62 94.2667 46.68 94.4 46.8C94.5333 46.92 94.6 47.0867 94.6 47.3C94.6 47.5267 94.5333 47.7 94.4 47.82C94.28 47.94 94.0933 48 93.84 48H87.22C86.9667 48 86.7733 47.94 86.64 47.82C86.52 47.7 86.46 47.5267 86.46 47.3C86.46 47.0867 86.5267 46.92 86.66 46.8C86.7933 46.68 86.98 46.62 87.22 46.62H89.7V35.9L87.52 37.32C87.4133 37.3867 87.3067 37.42 87.2 37.42C87.0133 37.42 86.8467 37.3333 86.7 37.16C86.5667 36.9867 86.5 36.8 86.5 36.6C86.5 36.32 86.6067 36.12 86.82 36L89.86 34.02C90.0867 33.8733 90.32 33.8 90.56 33.8C90.7867 33.8 90.9733 33.8733 91.12 34.02C91.2667 34.1667 91.34 34.3733 91.34 34.64V46.62H93.84ZM105.832 46.62C106.072 46.62 106.259 46.68 106.392 46.8C106.526 46.92 106.592 47.0867 106.592 47.3C106.592 47.5267 106.526 47.7 106.392 47.82C106.272 47.94 106.086 48 105.832 48H99.2122C98.9589 48 98.7655 47.94 98.6322 47.82C98.5122 47.7 98.4522 47.5267 98.4522 47.3C98.4522 47.0867 98.5189 46.92 98.6522 46.8C98.7855 46.68 98.9722 46.62 99.2122 46.62H101.692V35.9L99.5122 37.32C99.4055 37.3867 99.2989 37.42 99.1922 37.42C99.0055 37.42 98.8389 37.3333 98.6922 37.16C98.5589 36.9867 98.4922 36.8 98.4922 36.6C98.4922 36.32 98.5989 36.12 98.8122 36L101.852 34.02C102.079 33.8733 102.312 33.8 102.552 33.8C102.779 33.8 102.966 33.8733 103.112 34.02C103.259 34.1667 103.332 34.3733 103.332 34.64V46.62H105.832ZM117.824 46.62C118.064 46.62 118.251 46.68 118.384 46.8C118.518 46.92 118.584 47.0867 118.584 47.3C118.584 47.5267 118.518 47.7 118.384 47.82C118.264 47.94 118.078 48 117.824 48H111.204C110.951 48 110.758 47.94 110.624 47.82C110.504 47.7 110.444 47.5267 110.444 47.3C110.444 47.0867 110.511 46.92 110.644 46.8C110.778 46.68 110.964 46.62 111.204 46.62H113.684V35.9L111.504 37.32C111.398 37.3867 111.291 37.42 111.184 37.42C110.998 37.42 110.831 37.3333 110.684 37.16C110.551 36.9867 110.484 36.8 110.484 36.6C110.484 36.32 110.591 36.12 110.804 36L113.844 34.02C114.071 33.8733 114.304 33.8 114.544 33.8C114.771 33.8 114.958 33.8733 115.104 34.02C115.251 34.1667 115.324 34.3733 115.324 34.64V46.62H117.824ZM125.977 48.16C124.363 48.16 123.137 47.5467 122.297 46.32C121.457 45.0933 121.037 43.3067 121.037 40.96C121.037 38.6 121.457 36.8067 122.297 35.58C123.137 34.3533 124.363 33.74 125.977 33.74C127.59 33.74 128.817 34.3533 129.657 35.58C130.497 36.7933 130.917 38.58 130.917 40.94C130.917 43.3 130.497 45.0933 129.657 46.32C128.817 47.5467 127.59 48.16 125.977 48.16ZM125.977 46.78C127.097 46.78 127.923 46.3067 128.457 45.36C128.99 44.4133 129.257 42.94 129.257 40.94C129.257 38.9267 128.99 37.4533 128.457 36.52C127.937 35.5867 127.11 35.12 125.977 35.12C124.857 35.12 124.03 35.5933 123.497 36.54C122.963 37.4733 122.697 38.94 122.697 40.94C122.697 42.94 122.963 44.4133 123.497 45.36C124.03 46.3067 124.857 46.78 125.977 46.78ZM141.809 46.62C142.049 46.62 142.235 46.68 142.369 46.8C142.502 46.92 142.569 47.0867 142.569 47.3C142.569 47.5267 142.502 47.7 142.369 47.82C142.249 47.94 142.062 48 141.809 48H135.189C134.935 48 134.742 47.94 134.609 47.82C134.489 47.7 134.429 47.5267 134.429 47.3C134.429 47.0867 134.495 46.92 134.629 46.8C134.762 46.68 134.949 46.62 135.189 46.62H137.669V35.9L135.489 37.32C135.382 37.3867 135.275 37.42 135.169 37.42C134.982 37.42 134.815 37.3333 134.669 37.16C134.535 36.9867 134.469 36.8 134.469 36.6C134.469 36.32 134.575 36.12 134.789 36L137.829 34.02C138.055 33.8733 138.289 33.8 138.529 33.8C138.755 33.8 138.942 33.8733 139.089 34.02C139.235 34.1667 139.309 34.3733 139.309 34.64V46.62H141.809ZM149.961 48.16C148.348 48.16 147.121 47.5467 146.281 46.32C145.441 45.0933 145.021 43.3067 145.021 40.96C145.021 38.6 145.441 36.8067 146.281 35.58C147.121 34.3533 148.348 33.74 149.961 33.74C151.574 33.74 152.801 34.3533 153.641 35.58C154.481 36.7933 154.901 38.58 154.901 40.94C154.901 43.3 154.481 45.0933 153.641 46.32C152.801 47.5467 151.574 48.16 149.961 48.16ZM149.961 46.78C151.081 46.78 151.908 46.3067 152.441 45.36C152.974 44.4133 153.241 42.94 153.241 40.94C153.241 38.9267 152.974 37.4533 152.441 36.52C151.921 35.5867 151.094 35.12 149.961 35.12C148.841 35.12 148.014 35.5933 147.481 36.54C146.948 37.4733 146.681 38.94 146.681 40.94C146.681 42.94 146.948 44.4133 147.481 45.36C148.014 46.3067 148.841 46.78 149.961 46.78ZM165.793 46.62C166.033 46.62 166.22 46.68 166.353 46.8C166.486 46.92 166.553 47.0867 166.553 47.3C166.553 47.5267 166.486 47.7 166.353 47.82C166.233 47.94 166.046 48 165.793 48H159.173C158.92 48 158.726 47.94 158.593 47.82C158.473 47.7 158.413 47.5267 158.413 47.3C158.413 47.0867 158.48 46.92 158.613 46.8C158.746 46.68 158.933 46.62 159.173 46.62H161.653V35.9L159.473 37.32C159.366 37.3867 159.26 37.42 159.153 37.42C158.966 37.42 158.8 37.3333 158.653 37.16C158.52 36.9867 158.453 36.8 158.453 36.6C158.453 36.32 158.56 36.12 158.773 36L161.813 34.02C162.04 33.8733 162.273 33.8 162.513 33.8C162.74 33.8 162.926 33.8733 163.073 34.02C163.22 34.1667 163.293 34.3733 163.293 34.64V46.62H165.793Z" fill="#C4C4C4" fill-opacity="0.1"/>
</svg>
